# xmcd
#
# Track frame offsets: 
#        150
#        8835
#        33617
#        50535
#        66965
#        84725
#        104065
#        126992
#        139617
#        163807
#        173882
#        188425
#        208125
#        209734
#        234495
#        253057
#        253432
#        253807
#        254185
#        254555
#        254930
#        255305
#        255682
#        256057
#        256432
#        256807
#        257182
#
# Disc length: 3753 seconds
#
# Revision: 0
# Processed by: cddbd v1.5.2PL0 Copyright (c) Steve Scherf et al.
# Submitted via: ExactAudioCopy v1.0b1
#
DISCID=b40ea71b
DTITLE=이승환 - The war in Life
DYEAR=1999
DGENRE=Ballad and rock
TTITLE0=正常- 대예언
TTITLE1=正常- 그대는 모릅니다
TTITLE2=正常- 애인간수
TTITLE3=正常- 세가지 소원
TTITLE4=正常- 첫날의 약속
TTITLE5=正常- 고(告)함
TTITLE6=正常- 나는
TTITLE7=正常- 오늘은 울기 좋은 날
TTITLE8=非正常- 귀신소동
TTITLE9=非正常- 못 말리는 봉팔이
TTITLE10=非正常- Rumour
TTITLE11=非正常- Let it all out
TTITLE12=非正常- the battle
TTITLE13=非正常- 나의 영웅
TTITLE14=非正常- 당부
TTITLE15=非正常- blank1
TTITLE16=非正常- blank2
TTITLE17=非正常- blank3
TTITLE18=非正常- blank4
TTITLE19=非正常- blank5
TTITLE20=非正常- blank6
TTITLE21=非正常- blank7
TTITLE22=非正常- blank8
TTITLE23=非正常- blank9
TTITLE24=非正常- blank10
TTITLE25=非正常- blank11
TTITLE26=非正常- and the future
EXTD=
EXTT0=
EXTT1=
EXTT2=
EXTT3=
EXTT4=
EXTT5=
EXTT6=
EXTT7=
EXTT8=
EXTT9=
EXTT10=
EXTT11=
EXTT12=
EXTT13=
EXTT14=
EXTT15=
EXTT16=
EXTT17=
EXTT18=
EXTT19=
EXTT20=
EXTT21=
EXTT22=
EXTT23=
EXTT24=
EXTT25=
EXTT26=
PLAYORDER=
